<svg width="19" height="19" viewBox="0 0 19 19" fill="none" xmlns="http://www.w3.org/2000/svg">
<rect width="19" height="19" fill="black" fill-opacity="0"/>
<rect width="19" height="19" fill="black" fill-opacity="0"/>
<rect width="19" height="19" fill="black" fill-opacity="0"/>
<path d="M9.5 0C4.2533 0 0 4.2533 0 9.5C0 14.7467 4.2533 19 9.5 19C14.7467 19 19 14.7467 19 9.5C18.9933 4.2561 14.7439 0.00672458 9.5 0ZM9.90755 18.1645V16.4936C9.90755 16.2685 9.72507 16.086 9.5 16.086C9.27493 16.086 9.09245 16.2685 9.09245 16.4936V18.1645C4.62361 17.9512 1.04883 14.3764 0.835478 9.90755H2.50644C2.7315 9.90755 2.91399 9.72507 2.91399 9.5C2.91399 9.27493 2.7315 9.09245 2.50644 9.09245H0.835478C1.04883 4.62361 4.62361 1.04883 9.09245 0.835478V2.50644C9.09245 2.7315 9.27493 2.91399 9.5 2.91399C9.72507 2.91399 9.90755 2.7315 9.90755 2.50644V0.835478C14.3764 1.04883 17.9512 4.62361 18.1645 9.09245H16.4936C16.2685 9.09245 16.086 9.27493 16.086 9.5C16.086 9.72507 16.2685 9.90755 16.4936 9.90755H16.4976H18.1686C17.9551 14.3779 14.378 17.9532 9.90755 18.1645Z" fill="#0085A0"/>
<rect width="4.82361" height="9.17014" fill="black" fill-opacity="0" transform="translate(9.09245 4.81323)"/>
<rect width="4.82361" height="9.17014" fill="black" fill-opacity="0" transform="translate(9.09245 4.81323)"/>
<path d="M13.7997 13.2903L9.90755 9.33297V5.22078C9.90755 4.99571 9.72507 4.81323 9.5 4.81323C9.27493 4.81323 9.09245 4.99571 9.09245 5.22078V9.50006C9.0929 9.60699 9.13534 9.70944 9.21064 9.78535L13.2169 13.8609C13.3744 14.0218 13.6326 14.0245 13.7935 13.867C13.9545 13.7094 13.9572 13.4512 13.7997 13.2903Z" fill="#0085A0"/>
</svg>
