<svg width="19" height="20" viewBox="0 0 19 20" fill="none" xmlns="http://www.w3.org/2000/svg">
<path d="M18.216 6.87158C18.5943 7.35406 18.7757 7.87127 18.7526 8.40393C18.7294 8.99063 18.4669 9.44995 18.2508 9.73172C18.5017 10.357 18.5982 11.3413 17.7606 12.1055C17.1469 12.6652 16.1047 12.9161 14.6611 12.8466C13.646 12.8003 12.7968 12.6112 12.7621 12.6034H12.7582C12.5652 12.5687 12.3607 12.5262 12.1522 12.4799C12.1368 12.727 12.1792 13.3407 12.6347 14.7225C13.1751 16.3668 13.1442 17.6251 12.5344 18.4665C11.8936 19.3504 10.8708 19.4199 10.5697 19.4199C10.2802 19.4199 10.0139 19.3003 9.82474 19.0803C9.3963 18.5823 9.44648 17.6637 9.50051 17.2391C8.99102 15.8727 7.56287 12.5224 6.35474 11.5922C6.33159 11.5767 6.31229 11.5574 6.29299 11.5381C5.93788 11.1637 5.69857 10.7584 5.53646 10.4033C5.30873 10.5268 5.05012 10.5963 4.77221 10.5963H2.41771C1.52994 10.5963 0.812012 9.87453 0.812012 8.99063V2.71839C0.812012 1.83062 1.5338 1.11269 2.41771 1.11269H4.77221C5.11574 1.11269 5.4361 1.22077 5.69857 1.40604L6.60563 1.29796C6.74459 1.27867 9.21489 0.966019 11.7508 1.0162C12.2101 0.981459 12.6424 0.962158 13.0439 0.962158C13.7348 0.962158 14.3369 1.0162 14.8387 1.12427C16.0198 1.37516 16.8265 1.87694 17.2356 2.61417C17.5483 3.17771 17.5483 3.73738 17.4981 4.09249C18.2662 4.78726 18.4013 5.55537 18.3743 6.09575C18.3589 6.40839 18.2894 6.67472 18.216 6.87158ZM2.41771 2.15485C2.10506 2.15485 1.85417 2.4096 1.85417 2.71839V8.99449C1.85417 9.30714 2.10892 9.55803 2.41771 9.55803H4.77221C5.08486 9.55803 5.33575 9.30328 5.33575 8.99449V2.72225C5.33575 2.4096 5.081 2.15871 4.77221 2.15871H2.41771V2.15485ZM17.2279 7.32318C17.0658 7.15335 17.0349 6.89473 17.1584 6.69402C17.1584 6.69016 17.3167 6.41998 17.336 6.04943C17.363 5.54379 17.1198 5.09605 16.6103 4.71392C16.4289 4.57497 16.3556 4.33566 16.4328 4.11951C16.4328 4.11565 16.5988 3.60615 16.3286 3.12367C16.07 2.66049 15.4949 2.32854 14.6225 2.14327C13.9239 1.99273 12.9744 1.96572 11.8087 2.05835C11.7933 2.05835 11.774 2.05835 11.7547 2.05835C9.27279 2.00432 6.76389 2.32854 6.73687 2.3324H6.73301L6.34317 2.37872C6.36632 2.4868 6.3779 2.60259 6.3779 2.71839V8.99449C6.3779 9.16046 6.35088 9.32258 6.30457 9.47311C6.37404 9.73172 6.56704 10.3068 7.0225 10.797C8.75557 12.1711 10.45 16.8068 10.5234 17.0075C10.5543 17.0886 10.562 17.1774 10.5465 17.2661C10.4809 17.6984 10.5041 18.2272 10.5967 18.3855C10.8013 18.3816 11.3532 18.3237 11.6852 17.8644C12.0789 17.3202 12.0635 16.3475 11.6389 15.0583C10.9904 13.0936 10.9364 12.0592 11.4497 11.6037C11.7045 11.376 12.0442 11.3644 12.2912 11.4532C12.5266 11.5072 12.7505 11.5536 12.9628 11.5883C12.9782 11.5922 12.9975 11.596 13.013 11.5999C14.1979 11.8585 16.3209 12.0167 17.0581 11.3451C17.6834 10.7739 17.2395 10.0173 17.1893 9.93629C17.0465 9.72014 17.089 9.43837 17.282 9.26468C17.2858 9.26082 17.6911 8.87869 17.7104 8.36534C17.7258 8.02181 17.5637 7.67056 17.2279 7.32318Z" fill="#F55F00"/>
</svg>
