<svg width="12" height="11" viewBox="0 0 12 11" fill="none" xmlns="http://www.w3.org/2000/svg">
<path d="M0.516744 3.22335L0.515206 3.24027L0.512524 3.25705C0.508706 3.28093 0.454723 3.64273 0.603062 4.27059L0.603097 4.27074C0.816285 5.17432 1.30964 6.0018 2.03788 6.66235L5.76281 9.9854L9.42324 6.66364L9.42352 6.66338C10.1525 6.00289 10.6464 5.17472 10.8597 4.27071L10.8597 4.27062C11.0081 3.6422 10.9539 3.28075 10.9502 3.25814L10.9474 3.24068L10.9458 3.22307C10.7972 1.58576 9.66409 0.5 8.34171 0.5C7.46087 0.5 6.66559 0.969009 6.19471 1.77475L5.76775 2.50536L5.33378 1.77889C4.86053 0.986658 4.02515 0.50022 3.12107 0.50022C1.79849 0.50022 0.665508 1.58596 0.516744 3.22335Z" stroke="#0085A0"/>
</svg>
