<svg width="19" height="20" viewBox="0 0 19 20" fill="none" xmlns="http://www.w3.org/2000/svg">
<path d="M17.5193 13.5105C17.8975 13.028 18.079 12.5108 18.0558 11.9782C18.0326 11.3915 17.7702 10.9321 17.554 10.6504C17.8049 10.0251 17.9014 9.04082 17.0638 8.27657C16.4501 7.71689 15.4079 7.466 13.9644 7.53548C12.9492 7.58179 12.1001 7.77093 12.0653 7.77865H12.0615C11.8685 7.81339 11.6639 7.85584 11.4555 7.90216C11.44 7.65513 11.4825 7.04142 11.9379 5.65959C12.4783 4.0153 12.4474 2.75699 11.8376 1.91554C11.1969 1.03164 10.174 0.962158 9.87293 0.962158C9.58344 0.962158 9.31711 1.08181 9.12798 1.30182C8.69953 1.79974 8.74971 2.71839 8.80375 3.14297C8.29425 4.50936 6.86611 7.8597 5.65797 8.78993C5.63481 8.80537 5.61552 8.82467 5.59622 8.84396C5.24111 9.21837 5.0018 9.62365 4.83969 9.97876C4.61196 9.85524 4.35335 9.78577 4.07544 9.78577H1.72093C0.833166 9.78577 0.115234 10.5076 0.115234 11.3915V17.6637C0.115234 18.5515 0.837026 19.2694 1.72093 19.2694H4.07544C4.41896 19.2694 4.73933 19.1613 5.0018 18.9761L5.90886 19.0841C6.04782 19.1034 8.51812 19.4161 11.054 19.3659C11.5134 19.4006 11.9457 19.4199 12.3471 19.4199C13.038 19.4199 13.6401 19.3659 14.1419 19.2578C15.323 19.0069 16.1297 18.5052 16.5389 17.7679C16.8515 17.2044 16.8515 16.6447 16.8014 16.2896C17.5695 15.5948 17.7046 14.8267 17.6775 14.2863C17.6621 13.9737 17.5926 13.7074 17.5193 13.5105ZM1.72093 18.2273C1.40828 18.2273 1.15739 17.9725 1.15739 17.6637V11.3876C1.15739 11.075 1.41214 10.8241 1.72093 10.8241H4.07544C4.38808 10.8241 4.63897 11.0788 4.63897 11.3876V17.6599C4.63897 17.9725 4.38422 18.2234 4.07544 18.2234H1.72093V18.2273ZM16.5312 13.0589C16.369 13.2287 16.3382 13.4874 16.4617 13.6881C16.4617 13.6919 16.6199 13.9621 16.6392 14.3327C16.6663 14.8383 16.4231 15.286 15.9136 15.6682C15.7322 15.8071 15.6588 16.0464 15.736 16.2626C15.736 16.2664 15.902 16.7759 15.6318 17.2584C15.3732 17.7216 14.7981 18.0536 13.9258 18.2388C13.2271 18.3894 12.2776 18.4164 11.1119 18.3237C11.0965 18.3237 11.0772 18.3237 11.0579 18.3237C8.57602 18.3778 6.06712 18.0536 6.0401 18.0497H6.03624L5.64639 18.0034C5.66955 17.8953 5.68113 17.7795 5.68113 17.6637V11.3876C5.68113 11.2216 5.65411 11.0595 5.6078 10.909C5.67727 10.6504 5.87027 10.0753 6.32573 9.58505C8.0588 8.21095 9.75327 3.57527 9.82661 3.37456C9.85749 3.29351 9.86521 3.20473 9.84977 3.11595C9.78415 2.68365 9.80731 2.15485 9.89994 1.9966C10.1045 2.00046 10.6565 2.05835 10.9884 2.51768C11.3821 3.06191 11.3667 4.0346 10.9421 5.32378C10.2936 7.28845 10.2396 8.32289 10.753 8.77835C11.0077 9.00608 11.3474 9.01766 11.5944 8.92888C11.8299 8.87484 12.0537 8.82852 12.266 8.79379C12.2815 8.78993 12.3008 8.78607 12.3162 8.78221C13.5012 8.5236 15.6241 8.36534 16.3613 9.03696C16.9866 9.60821 16.5427 10.3647 16.4926 10.4458C16.3497 10.662 16.3922 10.9437 16.5852 11.1174C16.5891 11.1213 16.9943 11.5034 17.0136 12.0168C17.0291 12.3603 16.867 12.7115 16.5312 13.0589Z" fill="#0085A0"/>
</svg>
