<svg width="15" height="11" viewBox="0 0 15 11" fill="none" xmlns="http://www.w3.org/2000/svg">
<path d="M0.503418 1.91443V9.08589C0.503418 10.0741 1.30956 10.8802 2.29773 10.8802H8.09384C9.08201 10.8802 9.88815 10.0741 9.88815 9.08589V7.92435C9.88815 7.72787 9.72923 7.56896 9.53275 7.56896C9.33628 7.56896 9.17736 7.72787 9.17736 7.92435V9.08589C9.17736 9.68399 8.68905 10.1723 8.09095 10.1723H2.29773C1.69962 10.1723 1.21132 9.68399 1.21132 9.08589V1.91443C1.21132 1.31632 1.69962 0.828017 2.29773 0.828017H8.09384C8.69194 0.828017 9.18025 1.31632 9.18025 1.91443V3.07596C9.18025 3.27244 9.33917 3.43136 9.53564 3.43136C9.73212 3.43136 9.89104 3.27244 9.89104 3.07596V1.91443C9.89104 0.926256 9.0849 0.120117 8.09673 0.120117H2.29773C1.30956 0.120117 0.503418 0.923367 0.503418 1.91443Z" fill="#F55F00"/>
<path d="M11.6392 8.17273C11.7086 8.24208 11.7982 8.27675 11.8906 8.27675C11.9831 8.27675 12.0727 8.24208 12.142 8.17273L14.5662 5.74854C14.7049 5.60985 14.7049 5.38736 14.5662 5.24867L12.142 2.82448C12.0033 2.68579 11.7808 2.68579 11.6421 2.82448C11.5034 2.96317 11.5034 3.18565 11.6421 3.32434L13.4625 5.14466H6.81975C6.62327 5.14466 6.46436 5.30357 6.46436 5.50005C6.46436 5.69653 6.62327 5.85544 6.81975 5.85544H13.4596L11.6392 7.67576C11.5006 7.81156 11.5006 8.03693 11.6392 8.17273Z" fill="#F55F00"/>
</svg>
