<svg width="17" height="17" viewBox="0 0 17 17" fill="none" xmlns="http://www.w3.org/2000/svg">
<rect width="17" height="17" fill="black" fill-opacity="0" transform="scale(1 -1) rotate(-90)"/>
<rect width="17" height="17" fill="black" fill-opacity="0" transform="scale(1 -1) rotate(-90)"/>
<path d="M2.70789 7.11269C2.70789 6.62198 3.11154 6.22394 3.60852 6.22394C4.10639 6.22394 4.50915 6.62198 4.50915 7.11269C4.50915 8.19868 5.12381 9.16853 6.11445 9.64469C6.43412 9.79885 6.62015 10.1149 6.62015 10.444C6.62015 10.575 6.59095 10.7078 6.52894 10.8329C6.31131 11.2743 5.7722 11.4578 5.32459 11.2425C3.71056 10.4663 2.70789 8.88337 2.70789 7.11269Z" fill="#F46403"/>
<path d="M15.0783 16.6745L12.0766 13.7127C10.8268 14.5896 9.3034 15.1103 7.65626 15.1103C3.43456 15.1103 0 11.721 0 7.55499C0 3.38897 3.43456 0 7.65626 0C11.8777 0 15.3122 3.38897 15.3122 7.55499C15.3122 9.29537 14.7072 10.8952 13.7015 12.1737L16.6701 15.1032C16.8898 15.32 17 15.6049 17 15.8888C17 16.1734 16.8901 16.4577 16.6701 16.6745C16.2309 17.1085 15.5181 17.1085 15.0783 16.6745ZM7.65656 1.7781C4.4282 1.7781 1.80186 4.3701 1.80186 7.55559C1.80186 10.7411 4.4282 13.3331 7.65656 13.3331C8.99968 13.3331 10.235 12.8801 11.2242 12.1262C11.5508 11.877 11.8521 11.5972 12.1191 11.2864C12.9854 10.2789 13.5113 8.97753 13.5113 7.55559C13.511 4.3698 10.8846 1.7781 7.65656 1.7781Z" fill="#F46403"/>
</svg>
