<svg width="28" height="18" viewBox="0 0 28 18" fill="none" xmlns="http://www.w3.org/2000/svg">
<path d="M26.0399 7.63083L25.3148 4.68328C25.5131 4.64049 25.6618 4.46175 25.6618 4.24761V3.77237C25.6618 2.74052 24.8358 1.90108 23.8205 1.90108H20.5178V0.920805C20.5178 0.413051 20.1114 0 19.6117 0H2.7766C2.27697 0 1.87053 0.413051 1.87053 0.920805V9.00008C1.87053 9.24612 2.06681 9.44565 2.30897 9.44565C2.55107 9.44565 2.7474 9.24618 2.7474 9.00008V0.920805C2.7474 0.90441 2.76047 0.891127 2.7766 0.891127H19.6117C19.6278 0.891127 19.6409 0.90441 19.6409 0.920805V9.0002C19.6409 9.24624 19.8372 9.44576 20.0793 9.44576C20.3214 9.44576 20.5178 9.24629 20.5178 9.0002V8.49511H25.6895C25.6899 8.49511 25.6903 8.49522 25.6907 8.49522C25.6911 8.49522 25.6915 8.49516 25.6919 8.49516C26.3283 8.49561 26.8686 8.92011 27.0542 9.50506H25.691C25.4489 9.50506 25.2526 9.70453 25.2526 9.95062V10.9011C25.2526 11.6709 25.8688 12.2972 26.6262 12.2972H27.1231V14.2575H25.9768C25.6002 13.1525 24.5665 12.3565 23.3528 12.3565C22.139 12.3565 21.1053 13.1525 20.7287 14.2575H20.5176V10.9011C20.5176 10.655 20.3214 10.4555 20.0792 10.4555C19.8371 10.4555 19.6408 10.655 19.6408 10.9011V14.2574H10.5447C10.1681 13.1524 9.13447 12.3564 7.92068 12.3564C6.70689 12.3564 5.67318 13.1524 5.29666 14.2574H2.7766C2.76047 14.2574 2.7474 14.2441 2.7474 14.2277V13.2475H4.64719C4.88929 13.2475 5.08562 13.0481 5.08562 12.802C5.08562 12.5559 4.88935 12.3564 4.64719 12.3564H0.438431C0.196329 12.3564 0 12.5559 0 12.802C0 13.0481 0.196274 13.2475 0.438431 13.2475H1.87059V14.2277C1.87059 14.7355 2.27703 15.1486 2.77665 15.1486H5.14485C5.14474 15.1584 5.14408 15.1683 5.14408 15.1782C5.14408 16.7342 6.3897 18 7.92068 18C9.45166 18 10.6973 16.7342 10.6973 15.1782C10.6973 15.1682 10.6966 15.1584 10.6965 15.1486H20.5769C20.5768 15.1584 20.5762 15.1683 20.5762 15.1782C20.5762 16.7342 21.8218 18 23.3528 18C24.8837 18 26.1294 16.7342 26.1294 15.1782C26.1294 15.1682 26.1287 15.1584 26.1286 15.1486H27.5616C27.8037 15.1486 28 14.9491 28 14.703V9.95051C28.0001 8.77716 27.1482 7.80228 26.0399 7.63083ZM20.5178 2.79215H23.8205C24.3523 2.79215 24.785 3.23188 24.785 3.77237V3.80205H20.5178V2.79215ZM20.5178 7.60404V4.69312H24.4135L25.1296 7.60404H20.5178ZM7.92068 17.109C6.87314 17.109 6.02089 16.243 6.02089 15.1783C6.02089 14.1137 6.87314 13.2476 7.92068 13.2476C8.96822 13.2476 9.82047 14.1137 9.82047 15.1783C9.82047 16.243 8.96822 17.109 7.92068 17.109ZM23.3529 17.109C22.3053 17.109 21.4531 16.243 21.4531 15.1783C21.4531 14.1137 22.3053 13.2476 23.3529 13.2476C24.4004 13.2476 25.2527 14.1137 25.2527 15.1783C25.2527 16.243 24.4004 17.109 23.3529 17.109ZM27.1232 11.406H26.6264C26.3524 11.406 26.1295 11.1795 26.1295 10.9011V10.3961H27.1232V11.406H27.1232Z" fill="#0085A0"/>
<path d="M7.92071 14.2575C7.42109 14.2575 7.01465 14.6706 7.01465 15.1783C7.01465 15.6861 7.42109 16.0991 7.92071 16.0991C8.42034 16.0991 8.82678 15.6861 8.82678 15.1783C8.82678 14.6706 8.42034 14.2575 7.92071 14.2575Z" fill="#0085A0"/>
<path d="M23.3528 14.2575C22.8532 14.2575 22.4468 14.6706 22.4468 15.1783C22.4468 15.6861 22.8532 16.0991 23.3528 16.0991C23.8525 16.0991 24.2589 15.6861 24.2589 15.1783C24.2589 14.6706 23.8525 14.2575 23.3528 14.2575Z" fill="#0085A0"/>
<path d="M18.2088 12.3566H11.6618C11.4197 12.3566 11.2234 12.556 11.2234 12.8021C11.2234 13.0482 11.4197 13.2477 11.6618 13.2477H18.2088C18.4509 13.2477 18.6472 13.0482 18.6472 12.8021C18.6472 12.556 18.451 12.3566 18.2088 12.3566Z" fill="#0085A0"/>
<path d="M6.98545 10.4556H1.37373C1.13163 10.4556 0.935303 10.655 0.935303 10.9011C0.935303 11.1472 1.13158 11.3467 1.37373 11.3467H6.98545C7.22755 11.3467 7.42388 11.1472 7.42388 10.9011C7.42388 10.655 7.22755 10.4556 6.98545 10.4556Z" fill="#0085A0"/>
<path d="M15.2453 4.40774C15.0742 4.23379 14.7965 4.23379 14.6254 4.4078L10.7266 8.36996L8.69836 6.30877C8.52714 6.13475 8.24954 6.13475 8.07837 6.30877C7.90714 6.48278 7.90714 6.76483 8.07837 6.93885L10.4166 9.31511C10.5022 9.40215 10.6144 9.44561 10.7266 9.44561C10.8387 9.44561 10.951 9.40215 11.0365 9.31511L15.2453 5.03788C15.4165 4.86381 15.4165 4.58176 15.2453 4.40774Z" fill="#0085A0"/>
</svg>
