<svg width="18" height="17" viewBox="0 0 18 17" fill="none" xmlns="http://www.w3.org/2000/svg">
<path d="M8.01698 0.518405C8.41419 -0.0611671 9.26952 -0.0611663 9.66672 0.518406L12.1118 4.08601C12.2418 4.27574 12.4333 4.41485 12.6539 4.47988L16.8024 5.7028C17.4764 5.90147 17.7407 6.71494 17.3122 7.2718L14.6748 10.6996C14.5345 10.8819 14.4614 11.107 14.4677 11.3369L14.5866 15.6603C14.6059 16.3627 13.914 16.8654 13.252 16.63L9.1769 15.1809C8.96018 15.1039 8.72352 15.1039 8.5068 15.1809L4.43174 16.63C3.76973 16.8654 3.07776 16.3627 3.09707 15.6603L3.21598 11.3369C3.22231 11.107 3.14917 10.8819 3.00891 10.6996L0.371474 7.2718C-0.0569888 6.71494 0.207323 5.90147 0.881273 5.7028L5.02983 4.47988C5.25045 4.41485 5.44191 4.27574 5.57194 4.08601L8.01698 0.518405Z" fill="#F46403"/>
</svg>
