<svg width="31" height="31" viewBox="0 0 31 31" fill="none" xmlns="http://www.w3.org/2000/svg">
<rect width="31" height="31" fill="black" fill-opacity="0"/>
<rect width="1.81679" height="1.80888" fill="black" fill-opacity="0" transform="translate(15.9484 15.8092)"/>
<rect width="1.81679" height="1.80888" fill="black" fill-opacity="0" transform="translate(15.9484 15.8092)"/>
<path d="M17.4991 16.0755C17.1408 15.7191 16.5677 15.7217 16.2157 16.0755C15.8581 16.4331 15.8609 17.0068 16.2148 17.3588C16.559 17.7048 17.1549 17.7038 17.4991 17.3598C17.8513 17.0075 17.8565 16.4348 17.4991 16.0755Z" fill="#F55F00"/>
<rect width="27.7774" height="27.7793" fill="black" fill-opacity="0" transform="translate(0 3.22067)"/>
<rect width="27.7774" height="27.7793" fill="black" fill-opacity="0" transform="translate(0 3.22067)"/>
<path d="M22.4554 12.3454C21.9467 12.7632 21.3474 13.0175 20.7116 13.0175C20.0213 13.0175 19.313 12.745 18.7862 12.2183C17.7146 11.1647 17.7146 9.43925 18.7862 8.36751C19.8215 7.33216 21.6016 7.33216 22.637 8.36751C23.2728 9.0032 23.4907 9.89336 23.3454 10.7288C23.7269 10.8197 24.1082 10.8924 24.4897 10.8924C25.7794 10.8924 26.9418 10.3475 27.7774 9.49369C27.7774 8.78529 27.5049 8.09499 26.9782 7.5683L23.4362 4.0263C22.6915 3.28164 21.6198 3.02728 20.639 3.3724L14.8082 5.31595C14.1543 5.53392 13.5368 5.91543 13.0464 6.40573L0.803806 18.6483C-0.267935 19.7019 -0.267935 21.4275 0.803806 22.4992L8.50537 30.2008C9.03207 30.7275 9.74053 31 10.4308 31C11.1392 31 11.8295 30.7275 12.3562 30.2008L24.5987 17.9582C25.0892 17.4677 25.4706 16.8501 25.6885 16.1962L27.0328 12.1639C26.2516 12.5271 25.398 12.7088 24.4898 12.7088C23.7814 12.7088 23.1093 12.5634 22.4554 12.3454ZM9.79266 22.4977C9.27825 23.0121 8.59353 23.296 7.8663 23.296C7.13816 23.296 6.45344 23.0121 5.93903 22.4977C4.8774 21.4352 4.8774 19.7066 5.93994 18.6441C6.99981 17.5824 8.72927 17.5815 9.79272 18.6432C9.79272 18.6441 9.79272 18.6441 9.79272 18.6441C10.8552 19.7066 10.8552 21.4352 9.79266 22.4977ZM13.1319 24.0392C12.6398 24.1095 12.1755 23.7691 12.1039 23.2685L10.8197 14.2778C10.7487 13.7811 11.0937 13.3208 11.5904 13.2498C12.0888 13.1718 12.5474 13.523 12.6183 14.0205L13.9026 23.0112C13.9735 23.5079 13.6285 23.9682 13.1319 24.0392ZM18.7833 18.6449C17.7201 19.7063 15.9964 19.7107 14.9297 18.644C13.8673 17.5817 13.8639 15.8579 14.9306 14.7912C15.9577 13.7633 17.7546 13.7615 18.7834 14.7912C19.85 15.8579 19.8456 17.5826 18.7833 18.6449Z" fill="#F55F00"/>
<rect width="1.81511" height="1.80836" fill="black" fill-opacity="0" transform="translate(6.95868 19.6632)"/>
<rect width="1.81511" height="1.80836" fill="black" fill-opacity="0" transform="translate(6.95868 19.6632)"/>
<path d="M8.50836 19.9283C8.1521 19.5738 7.57655 19.5758 7.2241 19.9283C6.87021 20.283 6.87021 20.8586 7.2241 21.2134C7.56825 21.5576 8.16421 21.5576 8.50836 21.2134C8.86226 20.8595 8.86226 20.2831 8.50836 19.9283Z" fill="#F55F00"/>
<rect width="10.7243" height="12.1639" fill="black" fill-opacity="0" transform="translate(20.2757)"/>
<rect width="10.7243" height="12.1639" fill="black" fill-opacity="0" transform="translate(20.2757)"/>
<path d="M24.4898 0C22.9095 0 21.42 0.599353 20.2757 1.59844C21.4019 1.27148 22.5826 1.39857 23.5816 1.90717C23.8721 1.85261 24.181 1.81635 24.4898 1.81635C26.9964 1.81641 29.1837 3.84473 29.1837 6.35137C29.1837 7.58489 28.5576 8.66492 27.7775 9.49369C27.7775 9.78437 27.723 10.0749 27.6321 10.3655L27.0327 12.1639C28.0318 11.746 28.8854 11.0558 29.5394 10.2021C29.5394 10.2021 29.5394 10.2021 29.5394 10.1839C30.3749 9.11218 31 7.78627 31 6.35131C31.0001 2.8457 27.9954 0 24.4898 0Z" fill="#F55F00"/>
<rect width="1.81511" height="1.81626" fill="black" fill-opacity="0" transform="translate(19.8022 9.38699)"/>
<rect width="1.81511" height="1.81626" fill="black" fill-opacity="0" transform="translate(19.8022 9.38699)"/>
<path d="M21.3519 9.65335H21.351C20.9989 9.29945 20.4259 9.29697 20.0676 9.65335C19.7137 10.0081 19.7137 10.5837 20.0676 10.9385C20.4224 11.2915 20.9971 11.2915 21.3519 10.9385C21.7058 10.5838 21.7058 10.0082 21.3519 9.65335Z" fill="#F55F00"/>
</svg>
