<svg width="16" height="18" viewBox="0 0 16 18" fill="none" xmlns="http://www.w3.org/2000/svg">
<rect width="16" height="18" fill="black" fill-opacity="0"/>
<rect width="16" height="18" fill="black" fill-opacity="0"/>
<rect width="16" height="18" fill="black" fill-opacity="0"/>
<path d="M7.99994 9.0001C9.20476 9.0001 10.2331 8.5605 11.0852 7.68165C11.9375 6.80281 12.3637 5.7423 12.3637 4.49995C12.3637 3.25781 11.9375 2.19725 11.0852 1.3182C10.2328 0.439401 9.20444 0 7.99994 0C6.79543 0 5.76689 0.439401 4.91475 1.3182C4.06244 2.19725 3.63629 3.25776 3.63629 4.49995C3.63629 5.7423 4.06244 6.80281 4.91475 7.68165C5.76713 8.5605 6.79539 9.0001 7.99994 9.0001Z" fill="#0085A0"/>
<path d="M15.9599 13.752C15.9333 13.3576 15.8802 12.9317 15.8008 12.4746C15.7212 12.0175 15.6207 11.5939 15.4995 11.2031C15.3783 10.8125 15.2154 10.4316 15.0108 10.0605C14.8064 9.6894 14.5715 9.37305 14.3062 9.11122C14.0409 8.84947 13.7171 8.64062 13.3348 8.4844C12.9521 8.32822 12.5297 8.24998 12.0676 8.24998C11.9995 8.24998 11.8403 8.33397 11.5903 8.50197C11.3405 8.66997 11.0583 8.85751 10.7439 9.06463C10.4295 9.27138 10.0202 9.45904 9.51666 9.62676C9.01286 9.79476 8.50727 9.87878 7.99952 9.87878C7.49198 9.87878 6.98634 9.79476 6.48262 9.62676C5.97894 9.45904 5.56974 9.27138 5.25535 9.06463C4.941 8.85751 4.65885 8.67001 4.4089 8.50197C4.15883 8.33397 3.99982 8.24998 3.93164 8.24998C3.46955 8.24998 3.04718 8.32822 2.66465 8.4844C2.28204 8.64062 1.95822 8.84963 1.69302 9.11122C1.42791 9.37305 1.19304 9.6894 0.988582 10.0605C0.784123 10.4316 0.621257 10.8127 0.500022 11.2031C0.378828 11.5939 0.278409 12.0175 0.198887 12.4746C0.119284 12.9317 0.066269 13.3573 0.0397216 13.752C0.013214 14.1467 0 14.551 0 14.9651C0 15.9024 0.276579 16.6428 0.829537 17.1858C1.38261 17.7286 2.1175 18 3.03412 18H12.9658C13.8824 18 14.6172 17.7286 15.1703 17.1858C15.7236 16.6428 16 15.9025 16 14.9651C15.9999 14.551 15.9867 14.1467 15.9599 13.752Z" fill="#0085A0"/>
</svg>
